<svg width="19" height="17" viewBox="0 0 19 17" fill="none" xmlns="http://www.w3.org/2000/svg">
<g opacity="0.5">
<path opacity="0.99" d="M3.3416 13.2163C2.97266 13.2163 2.65671 13.0987 2.39376 12.8634C2.13081 12.6281 1.99955 12.3456 2 12.0159V4.81366C2 4.48356 2.13148 4.20087 2.39443 3.96559C2.65739 3.73032 2.97311 3.61288 3.3416 3.61328H14.0744C14.4434 3.61328 14.7593 3.73092 15.0223 3.96619C15.2852 4.20147 15.4165 4.48396 15.416 4.81366V12.0159C15.416 12.346 15.2845 12.6287 15.0216 12.864C14.7586 13.0993 14.4429 13.2167 14.0744 13.2163H3.3416ZM14.0744 6.01404L9.06018 8.81993C9.00428 8.84994 8.94547 8.87255 8.88376 8.88775C8.82204 8.90296 8.76346 8.91036 8.70801 8.90996C8.65211 8.90996 8.5933 8.90256 8.53159 8.88775C8.46987 8.87295 8.41129 8.85034 8.35584 8.81993L3.3416 6.01404V12.0159H14.0744V6.01404ZM8.70801 7.81461L14.0744 4.81366H3.3416L8.70801 7.81461ZM3.3416 6.16409V5.27881V5.29381V5.28661V6.16409Z" fill="black"/>
</g>
</svg>
